<?xml version="1.0" encoding="iso-8859-1"?>
<!-- Generator: Adobe Illustrator 19.0.0, SVG Export Plug-In . SVG Version: 6.00 Build 0)  -->
<svg version="1.1" id="Capa_1" xmlns="http://www.w3.org/2000/svg" xmlns:xlink="http://www.w3.org/1999/xlink" x="0px" y="0px"
	 viewBox="0 0 512 512" style="enable-background:new 0 0 512 512;" xml:space="preserve">
<g>
	<path style="fill:#F5DCB4;" d="M502.238,427.4l-23.284-65.732c-14.716-41.545-55.784-67.773-99.664-63.654l-20.827,1.956
		c-7.738,0.727-15.048-4.161-16.928-11.702c-3.763-15.095-11.429-28.635-21.856-39.521c-5.411-5.649-5.746-14.448-0.977-20.648
		l11.831-15.382c26.872-34.935,26.566-83.662-0.745-118.255l-43.211-54.734c-15.599-19.759-45.561-19.759-61.16,0l-43.211,54.734
		c-27.311,34.593-27.618,83.321-0.745,118.255l11.831,15.382c4.769,6.2,4.434,14.998-0.977,20.648
		c-10.427,10.886-18.093,24.426-21.856,39.521c-1.88,7.541-9.19,12.429-16.928,11.702l-20.827-1.956
		c-43.881-4.12-84.948,22.109-99.664,63.654L9.762,427.4c-8.406,23.729,7.562,49.082,32.595,51.751l69.341,7.393
		c43.826,4.672,85.221-21.037,100.459-62.395l6.74-18.294c2.716-7.37,10.412-11.898,18.076-10.179
		c6.125,1.374,12.487,2.114,19.028,2.114c6.541,0,12.903-0.739,19.028-2.114c7.664-1.72,15.36,2.808,18.076,10.179l6.74,18.294
		c15.238,41.357,56.633,67.066,100.459,62.395l69.341-7.393C494.676,476.481,510.644,451.129,502.238,427.4z M119.727,425.713
		c-17.709,0-32.065-14.356-32.065-32.065s14.356-32.065,32.065-32.065s32.065,14.356,32.065,32.065
		C151.791,411.357,137.436,425.713,119.727,425.713z M424.338,393.649c0,17.709-14.356,32.065-32.065,32.065
		c-17.709,0-32.065-14.356-32.065-32.065c0-17.709,14.356-32.065,32.065-32.065C409.982,361.584,424.338,375.94,424.338,393.649z
		 M288.065,153.167c0,17.709-14.356,32.065-32.065,32.065c-17.709,0-32.065-14.356-32.065-32.065s14.356-32.065,32.065-32.065
		C273.709,121.102,288.065,135.458,288.065,153.167z"/>
	<path style="fill:#F5DCB4;" d="M486.945,384.224c-22.625,1.908-43.915,2.129-63.885,0.943c0.75,2.718,1.278,5.525,1.278,8.481
		c0,17.708-14.355,32.065-32.065,32.065c-17.71,0-32.065-14.356-32.065-32.065c0-6.007,1.755-11.562,4.629-16.368
		c-103.499-22.307-162.066-82.229-185.239-111.45c-4.003,6.95-7.146,14.455-9.137,22.437c-1.879,7.541-9.189,12.429-16.927,11.702
		l-20.827-1.956c-43.881-4.12-84.948,22.109-99.664,63.654L9.762,427.4c-8.406,23.729,7.562,49.082,32.595,51.751l69.34,7.393
		c43.826,4.672,85.221-21.037,100.459-62.395l6.74-18.294c2.716-7.37,10.412-11.898,18.075-10.179
		c6.126,1.374,12.487,2.114,19.029,2.114c6.541,0,12.903-0.739,19.029-2.114c7.664-1.72,15.359,2.808,18.075,10.179l6.74,18.294
		c15.238,41.357,56.634,67.066,100.459,62.395l69.34-7.393c25.033-2.668,41-28.021,32.595-51.751L486.945,384.224z M119.727,425.713
		c-17.709,0-32.065-14.356-32.065-32.065s14.355-32.065,32.065-32.065s32.065,14.356,32.065,32.065
		C151.791,411.357,137.436,425.713,119.727,425.713z"/>
</g>
<g>
	<path style="fill:#5B5D6E;" d="M256,97.054c-30.99,0-56.113,25.122-56.113,56.113c0,30.99,25.123,56.113,56.113,56.113
		s56.113-25.123,56.113-56.113C312.113,122.176,286.99,97.054,256,97.054z M256,177.481c-13.331,0-24.181-10.845-24.181-24.181
		S242.67,129.119,256,129.119c13.331,0,24.181,10.845,24.181,24.181S269.331,177.481,256,177.481z"/>
	<path style="fill:#5B5D6E;" d="M119.727,337.537c-30.99,0-56.113,25.122-56.113,56.113c0,30.99,25.123,56.113,56.113,56.113
		s56.113-25.123,56.113-56.113C175.84,362.658,150.717,337.537,119.727,337.537z M119.727,417.963
		c-13.331,0-24.181-10.845-24.181-24.181c0-13.336,10.851-24.181,24.181-24.181s24.181,10.845,24.181,24.181
		C143.908,407.118,133.057,417.963,119.727,417.963z"/>
	<path style="fill:#5B5D6E;" d="M392.273,337.537c-30.99,0-56.113,25.122-56.113,56.113c0,30.99,25.123,56.113,56.113,56.113
		s56.113-25.123,56.113-56.113C448.385,362.658,423.264,337.537,392.273,337.537z M392.273,417.963
		c-13.331,0-24.181-10.845-24.181-24.181c0-13.336,10.851-24.181,24.181-24.181c13.33,0,24.181,10.845,24.181,24.181
		C416.455,407.118,405.604,417.963,392.273,417.963z"/>
</g>
<circle style="fill:#707487;" cx="255.998" cy="309.478" r="56.11"/>
<path d="M301.798,276.314c-3.643,1.972-4.997,6.523-3.024,10.166c10.156,18.758,6.703,42.406-8.398,57.508
	c-18.954,18.954-49.795,18.954-68.748,0c-9.182-9.182-14.238-21.39-14.238-34.375c0-12.985,5.057-25.193,14.238-34.375
	c15.099-15.099,38.744-18.553,57.5-8.402c3.643,1.972,8.194,0.616,10.166-3.026c1.971-3.643,0.616-8.194-3.026-10.166
	c-24.549-13.286-55.491-8.767-75.245,10.988c-12.015,12.015-18.632,27.989-18.632,44.981c0,16.992,6.617,32.966,18.632,44.981
	c12.403,12.403,28.689,18.604,44.981,18.602c16.288-0.001,32.581-6.202,44.981-18.602c19.759-19.759,24.275-50.705,10.982-75.255
	C309.992,275.696,305.441,274.342,301.798,276.314z"/>
<path d="M256,121.752c-17.396,0-31.548,14.152-31.548,31.548s14.152,31.548,31.548,31.548s31.548-14.152,31.548-31.548
	S273.396,121.752,256,121.752z M256,169.848c-9.125,0-16.548-7.423-16.548-16.548s7.423-16.548,16.548-16.548
	s16.548,7.423,16.548,16.548C272.548,162.425,265.125,169.848,256,169.848z"/>
<path d="M256,216.883c16.288-0.001,32.581-6.202,44.981-18.602c19.759-19.759,24.275-50.705,10.982-75.255
	c-1.972-3.642-6.521-4.996-10.167-3.024c-3.642,1.972-4.996,6.524-3.024,10.167c10.157,18.758,6.704,42.405-8.398,57.507
	c-9.478,9.479-21.924,14.217-34.375,14.216c-12.447-0.001-24.898-4.74-34.374-14.216c-18.954-18.954-18.954-49.794,0-68.748
	c15.099-15.098,38.743-18.553,57.499-8.403c3.643,1.973,8.195,0.617,10.166-3.026c1.971-3.643,0.617-8.194-3.026-10.166
	c-24.548-13.286-55.49-8.768-75.244,10.988c-24.803,24.802-24.803,65.158,0,89.96C223.422,210.685,239.708,216.885,256,216.883z"/>
<path d="M119.728,362.233c-17.396,0-31.548,14.152-31.548,31.548c0,17.396,14.152,31.548,31.548,31.548s31.548-14.152,31.548-31.548
	C151.276,376.385,137.123,362.233,119.728,362.233z M119.728,410.329c-9.125,0-16.548-7.423-16.548-16.548
	c0-9.125,7.423-16.548,16.548-16.548s16.548,7.423,16.548,16.548C136.276,402.906,128.852,410.329,119.728,410.329z"/>
<path d="M165.524,360.482c-3.643,1.973-4.997,6.524-3.024,10.167c10.156,18.758,6.703,42.406-8.398,57.507
	c-9.182,9.182-21.389,14.238-34.374,14.238s-25.193-5.057-34.375-14.238c-18.954-18.954-18.954-49.794,0-68.748
	c15.099-15.098,38.744-18.553,57.499-8.403c3.644,1.973,8.195,0.617,10.166-3.026c1.972-3.643,0.617-8.194-3.026-10.166
	c-24.548-13.286-55.49-8.768-75.244,10.988c-24.802,24.802-24.802,65.158,0,89.96c12.015,12.015,27.989,18.632,44.981,18.632
	s32.966-6.617,44.98-18.632c19.759-19.759,24.275-50.705,10.982-75.255C173.718,359.865,169.168,358.51,165.524,360.482z"/>
<path d="M392.274,362.233c-17.396,0-31.548,14.152-31.548,31.548c0,17.396,14.152,31.548,31.548,31.548
	c17.396,0,31.548-14.152,31.548-31.548C423.822,376.385,409.669,362.233,392.274,362.233z M392.274,410.329
	c-9.125,0-16.548-7.423-16.548-16.548c0-9.125,7.423-16.548,16.548-16.548c9.125,0,16.548,7.423,16.548,16.548
	C408.821,402.906,401.398,410.329,392.274,410.329z"/>
<path d="M438.07,360.482c-3.643,1.973-4.997,6.524-3.024,10.167c10.156,18.758,6.703,42.406-8.398,57.507
	c-18.954,18.954-49.794,18.954-68.748,0c-9.182-9.182-14.238-21.39-14.238-34.375c0-12.985,5.057-25.192,14.238-34.374
	c15.099-15.098,38.744-18.553,57.499-8.403c3.644,1.973,8.194,0.617,10.166-3.026c1.971-3.643,0.616-8.194-3.026-10.166
	c-24.548-13.286-55.49-8.768-75.244,10.988c-12.015,12.015-18.632,27.989-18.632,44.98c0,16.991,6.617,32.966,18.632,44.981
	c12.401,12.401,28.691,18.602,44.981,18.602s32.579-6.201,44.98-18.602c19.759-19.759,24.275-50.705,10.982-75.255
	C446.263,359.865,441.714,358.51,438.07,360.482z"/>
<path d="M509.308,424.895l-23.284-65.731c-15.887-44.849-60.068-73.063-107.435-68.616l-20.827,1.955
	c-4.146,0.39-7.993-2.211-8.949-6.049c-3.998-16.037-12.199-30.87-23.717-42.895c-2.79-2.913-2.982-7.592-0.448-10.887
	l11.832-15.381c29.009-37.712,28.679-90.132-0.803-127.476l-43.21-54.734c-8.866-11.231-22.158-17.672-36.467-17.672
	S228.4,23.85,219.534,35.081l-43.21,54.734c-29.482,37.344-29.812,89.763-0.803,127.476l11.832,15.381
	c2.534,3.294,2.341,7.974-0.448,10.887c-11.518,12.025-19.719,26.858-23.717,42.895c-0.957,3.838-4.808,6.437-8.949,6.049
	l-20.827-1.955c-47.372-4.446-91.549,23.769-107.436,68.616L2.692,424.895c-4.777,13.487-3.144,28.167,4.482,40.274
	c7.625,12.107,20.16,19.922,34.388,21.438l69.341,7.393c47.313,5.044,91.841-22.614,108.291-67.258l6.741-18.294
	c1.467-3.981,5.503-6.324,9.396-5.453c13.579,3.046,27.76,3.046,41.34,0c3.888-0.875,7.928,1.471,9.396,5.454l6.741,18.294
	c15.157,41.138,54.151,67.852,97.198,67.849c3.67,0,7.376-0.194,11.092-0.591l69.341-7.393c14.229-1.517,26.763-9.331,34.388-21.438
	C512.452,453.062,514.086,438.383,509.308,424.895z M492.134,457.176c-5.164,8.199-13.651,13.49-23.286,14.517l-69.341,7.393
	c-40.462,4.313-78.556-19.343-92.625-57.53l-6.741-18.293c-4.056-11.009-15.56-17.417-26.754-14.904
	c-11.428,2.564-23.346,2.564-34.773,0c-11.198-2.513-22.699,3.895-26.755,14.903l-6.741,18.294
	c-14.071,38.188-52.159,61.842-92.625,57.53l-69.341-7.393c-9.635-1.027-18.122-6.318-23.286-14.517
	c-5.164-8.198-6.27-18.139-3.035-27.271l23.284-65.732c12.648-35.706,46.257-59.084,83.522-59.084c2.771,0,5.567,0.13,8.372,0.393
	l20.827,1.955c11.465,1.081,22.171-6.385,24.906-17.355c3.367-13.506,10.281-26.006,19.995-36.147
	c7.871-8.218,8.518-21.29,1.505-30.408l-11.832-15.381c-24.813-32.257-24.53-77.094,0.687-109.035l43.21-54.734
	c6.004-7.604,15.004-11.966,24.693-11.966s18.689,4.362,24.693,11.966l43.21,54.734c25.217,31.941,25.5,76.778,0.687,109.035
	l-11.832,15.381c-7.013,9.118-6.366,22.19,1.505,30.408c9.714,10.142,16.628,22.642,19.995,36.147
	c2.734,10.97,13.429,18.431,24.906,17.355l20.827-1.955c40.505-3.806,78.305,20.331,91.894,58.691l23.284,65.732
	C498.404,439.037,497.298,448.977,492.134,457.176z"/>
<g>
</g>
<g>
</g>
<g>
</g>
<g>
</g>
<g>
</g>
<g>
</g>
<g>
</g>
<g>
</g>
<g>
</g>
<g>
</g>
<g>
</g>
<g>
</g>
<g>
</g>
<g>
</g>
<g>
</g>
</svg>
